PathFileType	4	(X/Y/Z)	 s11c0203.trc
DataRate	CameraRate	NumFrames	NumMarkers	Units	OrigDataRate	OrigDataStartFrame	OrigNumFrames
200	200	4	48	mm	200	1	2000
Frame#	Time	racr			lacr			c7			jug			rlel			rdr			llel			ldr			s2			lic			ric			lasi			rasi			rpsi			lpsi			rgt			lgt			rth1			rth2			rth3			rth4			rlfc			rmfc			rsh1			rsh2			rsh3			rsh4			rlmal			rcal			rtoe			rmt5			lth1			lth2			lth4			lth3			llfc			lmfc			llmal			lcal			lmt5			lsh1			lsh2			lsh3			lsh4			ltoe			SBIKE			LBIKE			RBIKE			
		X1	Y1	Z1	X2	Y2	Z2	X3	Y3	Z3	X4	Y4	Z4	X5	Y5	Z5	X6	Y6	Z6	X7	Y7	Z7	X8	Y8	Z8	X9	Y9	Z9	X10	Y10	Z10	X11	Y11	Z11	X12	Y12	Z12	X13	Y13	Z13	X14	Y14	Z14	X15	Y15	Z15	X16	Y16	Z16	X17	Y17	Z17	X18	Y18	Z18	X19	Y19	Z19	X20	Y20	Z20	X21	Y21	Z21	X22	Y22	Z22	X23	Y23	Z23	X24	Y24	Z24	X25	Y25	Z25	X26	Y26	Z26	X27	Y27	Z27	X28	Y28	Z28	X29	Y29	Z29	X30	Y30	Z30	X31	Y31	Z31	X32	Y32	Z32	X33	Y33	Z33	X34	Y34	Z34	X35	Y35	Z35	X36	Y36	Z36	X37	Y37	Z37	X38	Y38	Z38	X39	Y39	Z39	X40	Y40	Z40	X41	Y41	Z41	X42	Y42	Z42	X43	Y43	Z43	X44	Y44	Z44	X45	Y45	Z45	X46	Y46	Z46	X47	Y47	Z47	X48	Y48	Z48	
1	0.0050	427.433741	1414.894463	-96.413138	426.544597	1415.863607	-405.696841	340.171976	1527.266071	-256.240033	384.257996	1354.822910	-255.971381	564.941852	1181.319712	-32.658793	779.804209	964.234447	-52.959433	553.772816	1152.994733	-471.205694	794.140861	945.372356	-417.172844	-161.950054	1191.143469	-279.299916	69.399490	1213.845004	-461.800773	44.452203	1225.011388	-67.615263	109.991527	1140.041216	-424.988835	86.001245	1160.934084	-95.101562	-135.256142	1274.585453	-224.115885	-122.549439	1264.069205	-316.623326	-6.016329	1074.160408	-40.921938	-11.483730	1081.702183	-476.887705	100.080522	971.561334	-33.383473	178.023031	928.300873	-43.439293	222.319409	854.278314	-59.908300	202.191061	955.200814	-53.478140	299.731849	779.580335	-78.680002	306.754102	760.456437	-202.844651	283.838252	620.277527	-62.689172	302.539750	535.207548	-78.526418	277.654060	451.626361	-80.066258	328.694671	537.401541	-108.690144	264.576222	315.438860	-93.741261	209.458481	281.255682	-143.169322	494.384766	311.508123	-128.828330	428.603727	269.564207	-60.888673	109.293392	997.677400	-490.866645	189.889362	969.166187	-488.442285	211.685760	997.874007	-478.812157	247.445104	899.903465	-486.523626	346.759544	806.820436	-463.042888	361.553971	802.484045	-334.273019	24.920216	527.888241	-415.666006	-45.650035	509.244907	-375.656776	121.837839	388.570706	-446.489282	252.784306	725.927083	-473.745245	210.578424	654.455468	-455.567389	134.323621	609.712263	-444.225177	235.221677	636.423653	-432.024775	219.552908	373.717549	-379.621044	-206.143943	949.689273	-262.265206	0.940154	82.598347	-460.555446	-15.456365	81.064899	-62.354986	
2	0.0100	427.354190	1414.895160	-96.344883	426.472117	1415.771651	-405.664203	340.123207	1527.281689	-256.197901	384.178532	1354.829918	-255.952949	564.914927	1181.333742	-32.625757	779.790963	964.235034	-52.939361	553.749152	1152.953480	-471.178207	794.148180	945.384834	-417.177409	-162.014286	1191.136350	-279.276475	69.386992	1213.828932	-461.781517	44.379667	1225.027223	-67.587879	109.990408	1140.030890	-424.939357	85.933073	1160.933810	-95.074552	-135.304367	1274.549996	-224.115930	-122.567260	1264.048990	-316.582802	-5.976085	1074.211718	-40.910845	-11.508370	1081.642777	-476.859271	100.240725	971.782822	-33.336110	178.273517	928.609323	-43.397112	222.707758	854.697203	-59.859065	202.386082	955.644563	-53.442561	300.215117	780.037476	-78.620767	307.286973	760.855635	-202.785876	284.303934	620.683173	-62.638216	302.967441	535.576804	-78.495507	277.969654	452.145885	-80.046105	328.999555	537.763427	-108.719804	264.751961	315.984549	-93.721910	209.629015	281.658206	-143.136404	494.674995	311.850601	-128.829537	430.309326	270.165700	-61.614603	109.200048	997.526050	-490.859788	189.746451	968.938346	-488.414595	211.608892	997.612670	-478.801729	247.253428	899.572098	-486.485516	346.521688	806.471443	-462.960828	361.215976	802.049648	-334.237314	24.703618	527.307873	-415.676571	-45.848674	508.770873	-375.657622	121.685769	388.135107	-446.491810	252.523999	725.500384	-473.734147	210.328073	654.104239	-455.522679	134.077235	609.271923	-444.177865	234.935446	636.082051	-432.010843	219.371092	373.287976	-379.589749	-206.137774	949.686912	-262.254958	0.947874	82.584241	-460.569580	-15.463887	81.076704	-62.353236	
3	0.0150	427.289240	1414.878629	-96.291826	426.403790	1415.706583	-405.610707	340.065263	1527.289906	-256.119455	384.084670	1354.803555	-255.927298	564.863983	1181.324844	-32.569930	779.773678	964.252528	-52.920717	553.738922	1152.906847	-471.151231	794.154741	945.387175	-417.186207	-162.044463	1191.113686	-279.265153	69.352622	1213.812305	-461.752357	44.300195	1225.062721	-67.577639	109.991014	1140.054828	-424.938290	85.872638	1160.960686	-95.034860	-135.348993	1274.528856	-224.145533	-122.601019	1264.034119	-316.580485	-5.948939	1074.266245	-40.886364	-11.539421	1081.596737	-476.809087	100.420398	972.006035	-33.299442	178.555130	928.970118	-43.355325	223.082839	855.053961	-59.824342	202.560541	955.990420	-53.417890	300.715224	780.533643	-78.554053	307.689747	761.523382	-202.728801	284.734174	621.147398	-62.626328	303.365095	536.133019	-78.425228	278.260345	452.692209	-80.037837	329.327308	538.194993	-108.705486	264.997941	316.524726	-93.706920	209.906373	282.328608	-143.130646	494.926056	312.118152	-128.826575	430.508425	270.508267	-61.601196	109.095738	997.353853	-490.857709	189.628107	968.718863	-488.421812	211.513585	997.404290	-478.801013	247.079059	899.296021	-486.422897	346.262080	806.051713	-462.877284	360.953492	801.763231	-334.169787	24.497915	526.891726	-415.699021	-46.040808	508.320188	-375.671772	121.518449	387.755312	-446.523390	252.305126	725.120476	-473.687194	210.099181	653.686317	-455.500501	133.868558	608.894056	-444.170904	234.713000	635.737908	-432.009032	219.216913	372.909567	-379.591899	-206.146667	949.680418	-262.253524	0.940022	82.583797	-460.551967	-15.465980	81.077455	-62.348398	
4	0.0200	427.239667	1414.871214	-96.219898	426.740246	1416.015910	-405.517993	340.006534	1527.302204	-256.134408	384.010527	1354.811174	-255.918082	564.828119	1181.305670	-32.538009	779.779227	964.272164	-52.862799	553.720302	1152.958737	-471.076359	794.167679	945.397839	-417.222939	-162.089309	1191.103309	-279.237572	69.341221	1213.806260	-461.733119	44.239017	1225.090922	-67.547009	110.006317	1140.051550	-424.911554	85.805359	1160.967476	-94.999242	-135.346606	1274.510744	-224.164545	-123.111859	1264.040611	-316.230101	-5.929612	1074.312467	-40.880885	-11.556552	1081.544374	-476.769032	100.611168	972.237275	-33.248230	178.800103	929.255867	-43.282126	223.505881	855.396475	-59.749185	202.737328	956.293785	-53.386255	301.191273	780.991581	-78.493298	308.178233	762.017210	-202.749564	285.129168	621.716669	-62.607986	303.890758	536.656338	-78.325606	278.666913	453.169335	-79.997912	328.835675	538.849339	-108.830590	265.101680	317.135949	-93.671510	210.090175	282.899458	-143.106843	495.182433	312.462319	-128.820190	430.718324	270.997374	-61.604696	109.003622	997.202833	-490.836871	189.525115	968.491157	-488.362289	211.387986	997.198571	-478.742371	246.916108	899.015123	-486.377611	345.993837	805.748430	-462.824372	360.604065	801.663850	-334.163175	24.282460	526.590108	-415.675207	-46.360818	507.811789	-375.534383	121.344203	387.379686	-446.553388	252.082993	724.755446	-473.629873	209.849150	653.284185	-455.443266	133.637494	608.507734	-444.196939	233.918237	633.777096	-430.351779	219.049557	372.543010	-379.589093	-206.148362	949.686775	-262.253987	0.958067	82.578858	-460.570390	-15.460326	81.068611	-62.342637	
